Coordinates
version=1
nRows=33
nColumns=33
inDegrees=yes

Units are S.I. units (second, meters, Newtons, ...)
Angles are in degrees.

endheader
time	ground_thorax_rot_x	ground_thorax_rot_y	ground_thorax_rot_z	ground_thorax_tx	ground_thorax_ty	ground_thorax_tz	clav_prot_r	clav_elev_r	scapula_abduction_r	scapula_elevation_r	scapula_upward_rot_r	scapula_winging_r	shoulder_elv_r	plane_of_elev_r	axial_rot_r	elbow_flexion_r	pro_sup_r	wrist_flex_r	wrist_dev_r	clav_prot_l	clav_elev_l	scapula_abduction_l	scapula_elevation_l	scapula_upward_rot_l	scapula_winging_l	shoulder_elv_l	plane_of_elev_l	axial_rot_l	elbow_flexion_l	pro_sup_l	wrist_flex_l	wrist_dev_l	
11.6500	29.240840	30.594697	37.861259	-27.606708	773.657263	-31.159995	12.595030	35.469448	25.935972	45.000000	-45.000000	-3323.463401	-1908.667574	159.588344	21.195560	2160.630525	-191.590055	12.330353	14.231776	-10.737367	-45.000000	-36.551282	45.000000	-45.000000	-3858.563117	-1350.730204	16.490464	-180.000000	372.280316	201.422623	10.696093	-12.527403	
11.6600	29.339337	30.410463	37.644378	-30.553083	774.900983	-31.238664	12.587639	35.431195	25.883815	45.000000	-45.000000	-3323.622886	-1908.585890	159.587357	21.284024	2160.612129	-191.501454	12.367980	14.267568	-10.632598	-45.000000	-36.629862	45.000000	-45.000000	-3858.410133	-1350.618646	16.531422	-180.000000	372.317522	201.454015	10.769843	-12.574637	
11.6700	29.444656	30.222886	37.421887	-33.480305	776.176961	-31.326391	12.571775	35.400108	25.832409	45.000000	-45.000000	-3323.790735	-1908.507372	159.577791	21.378094	2160.593377	-191.433271	12.407234	14.304153	-10.529882	-45.000000	-36.706082	45.000000	-45.000000	-3858.258923	-1350.510961	16.573152	-180.000000	372.343420	201.482433	10.844914	-12.627615	
11.6800	29.552450	30.033790	37.200784	-36.385969	777.483337	-31.422729	12.555975	35.369352	25.778681	45.000000	-45.000000	-3323.959789	-1908.428397	159.565762	21.480616	2160.573927	-191.381885	12.448114	14.340797	-10.428441	-45.000000	-36.782340	45.000000	-45.000000	-3858.107869	-1350.404813	16.616195	-180.000000	372.367561	201.507237	10.920475	-12.681898	
11.6900	29.660756	29.844722	36.984576	-39.267732	778.818846	-31.526878	12.541627	35.337232	25.726262	45.000000	-45.000000	-3324.129017	-1908.349539	159.556722	21.593190	2160.555357	-191.346745	12.490236	14.378105	-10.328435	-45.000000	-36.861043	45.000000	-45.000000	-3857.955918	-1350.301759	16.659146	-180.000000	372.389972	201.527739	10.995903	-12.736867	
11.7000	29.766952	29.658428	36.777427	-42.123117	780.182776	-31.637923	12.535548	35.297708	25.672637	45.000000	-45.000000	-3324.297095	-1908.269287	159.552364	21.720768	2160.537579	-191.330189	12.532826	14.416545	-10.229045	-45.000000	-36.946535	45.000000	-45.000000	-3857.801820	-1350.202620	16.702622	-180.000000	372.416777	201.543413	11.071547	-12.789773	
11.7100	29.870040	29.475485	36.580118	-44.949165	781.574802	-31.755116	12.538085	35.249400	25.620560	45.000000	-45.000000	-3324.464356	-1908.188704	159.554249	21.861597	2160.521500	-191.336149	12.575011	14.456686	-10.130311	-45.000000	-37.039733	45.000000	-45.000000	-3857.644864	-1350.107432	16.746318	-180.000000	372.446543	201.553566	11.147065	-12.840737	
11.7200	29.972759	29.292904	36.388746	-47.742245	782.994968	-31.878031	12.540884	35.200987	25.569964	45.000000	-45.000000	-3324.627916	-1908.107234	159.561941	22.011425	2160.505458	-191.366036	12.618087	14.495810	-10.032778	-45.000000	-37.133799	45.000000	-45.000000	-3857.490156	-1350.012663	16.788117	-180.000000	372.478037	201.557479	11.221767	-12.889820	
11.7300	30.078859	29.109005	36.196764	-50.497815	784.443598	-32.006623	12.536358	35.161626	25.524145	45.000000	-45.000000	-3324.791283	-1908.026657	159.571240	22.160707	2160.490626	-191.421013	12.662333	14.532926	-9.936588	-45.000000	-37.221968	45.000000	-45.000000	-3857.340964	-1349.917032	16.828435	-180.000000	372.503746	201.554383	11.294972	-12.939762	
11.7400	30.187029	28.923663	36.003809	-53.210757	785.921332	-32.141152	12.528400	35.128222	25.480459	45.000000	-45.000000	-3324.956092	-1907.948241	159.576629	22.309094	2160.476678	-191.503039	12.706332	14.568932	-9.840578	-45.000000	-37.307203	45.000000	-45.000000	-3857.196147	-1349.822085	16.868506	-180.000000	372.525281	201.544023	11.367629	-12.990317	
11.7500	30.297968	28.735425	35.807328	-55.875604	787.428971	-32.282053	12.514658	35.103476	25.440615	45.000000	-45.000000	-3325.121257	-1907.872394	159.576909	22.449140	2160.464442	-191.613448	12.748692	14.603684	-9.745599	-45.000000	-37.387538	45.000000	-45.000000	-3857.057240	-1349.726975	16.907467	-180.000000	372.540216	201.526854	11.439444	-13.042544	
11.7600	30.409245	28.543113	35.610063	-58.487398	788.967368	-32.429838	12.498885	35.085196	25.403928	45.000000	-45.000000	-3325.281965	-1907.798743	159.573252	22.579907	2160.453696	-191.752119	12.788176	14.636653	-9.651874	-45.000000	-37.464812	45.000000	-45.000000	-3856.924472	-1349.630791	16.943832	-180.000000	372.553133	201.504441	11.510479	-13.094933	
11.7700	30.520258	28.348067	35.411794	-61.042018	790.537157	-32.585052	12.480498	35.075327	25.372047	45.000000	-45.000000	-3325.438542	-1907.726862	159.567413	22.698074	2160.443853	-191.917226	12.824957	14.667676	-9.559952	-45.000000	-37.538500	45.000000	-45.000000	-3856.798070	-1349.532948	16.977744	-180.000000	372.561346	201.478385	11.579955	-13.148394	
11.7800	30.627750	28.151567	35.215698	-63.536727	792.138585	-32.748285	12.467400	35.065189	25.343998	45.000000	-45.000000	-3325.592191	-1907.657238	159.558977	22.808208	2160.432067	-192.107235	12.859643	14.697534	-9.469728	-45.000000	-37.616073	45.000000	-45.000000	-3856.674252	-1349.436029	17.009981	-180.000000	372.568163	201.449896	11.648914	-13.201834	
11.7900	30.731314	27.956232	35.020876	-65.969862	793.771433	-32.920166	12.458910	35.051949	25.318214	45.000000	-45.000000	-3325.743264	-1907.587990	159.549526	22.909025	2160.415820	-192.318991	12.893707	14.726012	-9.379959	-45.000000	-37.699591	45.000000	-45.000000	-3856.553174	-1349.340138	17.041762	-180.000000	372.573548	201.419222	11.717580	-13.254838	
11.8000	30.830337	27.763302	34.827108	-68.340805	795.435049	-33.101356	12.456767	35.030533	25.293066	45.000000	-45.000000	-3325.892059	-1907.518623	159.538844	23.002098	2160.393107	-192.549385	12.928707	14.752759	-9.288959	-45.000000	-37.791773	45.000000	-45.000000	-3856.433995	-1349.245994	17.074291	-180.000000	372.578664	201.385132	11.786884	-13.306567	
11.8100	30.924583	27.574913	34.635062	-70.649282	797.128445	-33.292500	12.459314	35.001613	25.268731	45.000000	-45.000000	-3326.039969	-1907.448869	159.527327	23.085783	2160.365193	-192.795450	12.965310	14.777772	-9.195758	-45.000000	-37.892067	45.000000	-45.000000	-3856.316109	-1349.153687	17.108001	-180.000000	372.582797	201.344626	11.857083	-13.356699	
11.8200	31.012335	27.391787	34.447723	-72.895237	798.850314	-33.494154	12.469710	34.961938	25.246089	45.000000	-45.000000	-3326.186732	-1907.379629	159.515952	23.162259	2160.333192	-193.056996	13.003269	14.801266	-9.100211	-45.000000	-38.002052	45.000000	-45.000000	-3856.197477	-1349.064060	17.142606	-180.000000	372.588639	201.293383	11.928920	-13.403643	
11.8300	31.095307	27.213296	34.264835	-75.078355	800.599134	-33.706687	12.479251	34.924326	25.229096	45.000000	-45.000000	-3326.336025	-1907.313395	159.502821	23.223648	2160.299198	-193.333464	13.043273	14.822473	-9.005998	-45.000000	-38.112946	45.000000	-45.000000	-3856.080072	-1348.973122	17.175474	-180.000000	372.590208	201.225674	12.001408	-13.449033	
11.8400	31.173077	27.039632	34.087061	-77.198417	802.373283	-33.930213	12.488652	34.886753	25.217269	45.000000	-45.000000	-3326.484499	-1907.249885	159.490395	23.273363	2160.263325	-193.626056	13.084345	14.841295	-8.909814	-45.000000	-38.224485	45.000000	-45.000000	-3855.963476	-1348.881328	17.207753	-180.000000	372.592100	201.135549	12.074931	-13.490287	
11.8500	31.246515	26.870216	33.914564	-79.254936	804.171122	-34.164538	12.494546	34.857408	25.213026	45.000000	-45.000000	-3326.634104	-1907.191649	159.477712	23.306392	2160.227066	-193.937451	13.125476	14.858134	-8.816171	-45.000000	-38.331639	45.000000	-45.000000	-3855.849145	-1348.787125	17.237581	-180.000000	372.592103	201.017032	12.148789	-13.527959	
11.8600	31.315601	26.704316	33.747110	-81.247460	805.991037	-34.409160	12.501288	34.831292	25.216038	45.000000	-45.000000	-3326.782929	-1907.138221	159.465823	23.326657	2160.189283	-194.272109	13.164866	14.874015	-8.724993	-45.000000	-38.438602	45.000000	-45.000000	-3855.736353	-1348.692356	17.265724	-180.000000	372.595898	200.865878	12.223818	-13.560024	
11.8700	31.381816	26.540273	33.582203	-83.175279	807.831526	-34.663308	12.506461	34.812737	25.227890	45.000000	-45.000000	-3326.934584	-1907.093282	159.450438	23.329117	2160.152140	-194.634523	13.200754	14.890211	-8.638501	-45.000000	-38.543483	45.000000	-45.000000	-3855.626454	-1348.597772	17.291946	-180.000000	372.600359	200.679744	12.300684	-13.588879	
11.8800	31.445584	26.377019	33.418704	-85.037912	809.691320	-34.926053	12.516759	34.788934	25.242813	45.000000	-45.000000	-3327.084435	-1907.051553	159.431278	23.322706	2160.110894	-195.029870	13.231621	14.907687	-8.551996	-45.000000	-38.650035	45.000000	-45.000000	-3855.517422	-1348.506659	17.320858	-180.000000	372.610458	200.458648	12.380008	-13.612726	
11.8900	31.508823	26.212552	33.253584	-86.834744	811.569136	-35.196394	12.526382	34.767128	25.264890	45.000000	-45.000000	-3327.235365	-1907.017867	159.408553	23.300181	2160.067027	-195.460875	13.256942	14.927239	-8.468736	-45.000000	-38.753661	45.000000	-45.000000	-3855.412387	-1348.418189	17.351767	-180.000000	372.620555	200.204626	12.461812	-13.635344	
11.9000	31.571866	26.045916	33.088530	-88.565583	813.463634	-35.473406	12.540543	34.740057	25.290971	45.000000	-45.000000	-3327.381749	-1906.984424	159.383749	23.267717	2160.017603	-195.930390	13.276399	14.948026	-8.386668	-45.000000	-38.857091	45.000000	-45.000000	-3855.309106	-1348.331806	17.385222	-180.000000	372.632364	199.921516	12.544774	-13.656158	
11.9100	31.634186	25.879979	32.923418	-90.230373	815.373034	-35.756305	12.550578	34.714804	25.322488	45.000000	-45.000000	-3327.524730	-1906.956101	159.359873	23.218612	2159.968399	-196.437845	13.289297	14.970221	-8.302144	-45.000000	-38.959764	45.000000	-45.000000	-3855.210292	-1348.246980	17.420410	-180.000000	372.641532	199.614243	12.628209	-13.678242	
11.9200	31.695494	25.714444	32.761337	-91.829649	817.295151	-36.044537	12.565020	34.680401	25.354926	45.000000	-45.000000	-3327.657360	-1906.923232	159.339586	23.161280	2159.915077	-196.983552	13.296503	14.992369	-8.213746	-45.000000	-39.063797	45.000000	-45.000000	-3855.112961	-1348.163323	17.458505	-180.000000	372.652632	199.288231	12.710921	-13.699650	
11.9300	31.753021	25.553803	32.603823	-93.364027	819.227002	-36.337729	12.576291	34.641095	25.381443	45.000000	-45.000000	-3327.779779	-1906.887299	159.320926	23.090762	2159.861586	-197.566028	13.297289	15.014745	-8.114964	-45.000000	-39.171860	45.000000	-45.000000	-3855.018258	-1348.079704	17.498352	-180.000000	372.663512	198.947338	12.790595	-13.720880	
11.9400	31.809741	25.392616	32.450957	-94.834357	821.164968	-36.635671	12.589975	34.600823	25.408106	45.000000	-45.000000	-3327.893555	-1906.847987	159.301301	23.008629	2159.807116	-198.181226	13.294430	15.034935	-8.018626	-45.000000	-39.280821	45.000000	-45.000000	-3854.927597	-1347.994897	17.534772	-180.000000	372.672594	198.595821	12.867356	-13.744318	
11.9500	31.865261	25.233739	32.300758	-96.241261	823.104671	-36.938162	12.598081	34.563689	25.434284	45.000000	-45.000000	-3328.002884	-1906.813377	159.280152	22.910418	2159.755497	-198.821810	13.288463	15.054067	-7.917496	-45.000000	-39.391015	45.000000	-45.000000	-3854.842155	-1347.911116	17.570223	-180.000000	372.676740	198.237043	12.941656	-13.772165	
11.9600	31.922233	25.074333	32.151986	-97.585233	825.041270	-37.244920	12.607758	34.527497	25.461729	45.000000	-45.000000	-3328.108211	-1906.779903	159.256147	22.799845	2159.701743	-199.481302	13.281753	15.071203	-7.820391	-45.000000	-39.498206	45.000000	-45.000000	-3854.761039	-1347.829219	17.605333	-180.000000	372.672487	197.873104	13.013279	-13.806034	
11.9700	31.979119	24.917435	32.004228	-98.866441	826.969500	-37.555436	12.614251	34.492940	25.488684	45.000000	-45.000000	-3328.212633	-1906.751651	159.229070	22.676047	2159.644672	-200.154247	13.274400	15.087899	-7.721230	-45.000000	-39.605057	45.000000	-45.000000	-3854.684134	-1347.748557	17.642113	-180.000000	372.658940	197.504222	13.081438	-13.845968	
